<svg version="1.1" id="Layer_1" xmlns="http://www.w3.org/2000/svg" xmlns:xlink="http://www.w3.org/1999/xlink" x="0px" y="0px" viewBox="0 0 1218 1222" style="enable-background:new 0 0 1218 1222;" xml:space="preserve">
<style type="text/css">
	.st0{fill:#FFFFFF;}

	svg {

        max-width: 500px;
        margin: 0 auto;
	}

	@keyframes slap {

		100% {

            opacity: 1;
			transform: rotateY(0deg) scale(1);
		}
	}

	.sub_one {

        opacity: 0;
		transform-origin: 600px 600px;
		transform: rotateY(90deg) scale(1.7);
		animation: slap 1s cubic-bezier(.74,.02,.36,.97) forwards;
	}

	.sub_two {

        opacity: 0;
		transform-origin: 600px 600px;
		transform: rotateY(-90deg) scale(1.7);
		animation: slap 1s .65s cubic-bezier(.74,.02,.36,.97) forwards;
	}

	.sub_three {

        opacity: 0;
		transform-origin: 600px 600px;
		transform: rotateY(90deg) scale(1.7);
		animation: slap 1s 1.3s cubic-bezier(.74,.02,.36,.97) forwards;
	}
</style>
<g class="sub_one">
	<path d="M833.6,538.5c0-0.1-0.1-0.2-0.1-0.4c-0.1,0.1-0.1,0.1-0.2,0.2C833.4,538.4,833.5,538.4,833.6,538.5z"/>
	<path d="M845.5,611.6c-4.1-23.6-7.6-47.3-12-70.8c-0.1,0-0.1,0-0.2,0c0,0.2-0.1,0.4-0.2,0.5c0.1-0.2,0.2-0.3,0.2-0.5
		c-5.9,1-11.7,2-17.6,3.1c-1.4,0.1-2.9,0.9-4.2,0.3c-10.5-8.2-20.6-16.8-31.2-24.8c1.9,9.9,4.1,19.8,6.1,29.7
		c-6.4,1.1-12.8,2.2-19.1,3.4c-5.2-25.3-10.4-50.7-15.6-76c10.2-1.7,20.5-3.6,30.7-5.4c7.6-1.2,16-0.6,22.5,4
		c7.4,5.1,10.4,15,8.8,23.6c-1.3,6.8-6.5,12.2-12.5,15.3c10.7,8.2,21.6,16.1,32.3,24.2c0-0.1,0.1-0.1,0.2-0.2
		c-2.1-7.8-2.7-15.9-4.3-23.7c-11.6-69.5-23.4-139-34.8-208.5c-146.8,20.5-293.5,41.1-440.3,61.6c-13.7,1.8-27.4,4.1-41.1,5.5
		c4.7,30,10,59.9,14.9,89.9c4.7,28.7,9.8,57.3,14.2,86.1c7.2-1.5,14.5-2.5,21.8-3.9c8.6,16.6,16.6,33.4,25.4,49.9
		c1.7-18.3,3.1-36.7,4.6-55.1c4.8-0.9,9.6-1.6,14.4-2.6c8.9,16.4,17.2,33.2,26.2,49.5c0.5-2.4,0.6-4.9,0.7-7.3
		c1-15.8,2.1-31.6,3-47.4c7-1.4,14.1-2.5,21.2-3.8c-2.6,26.8-5.5,53.5-8.2,80.2c-7.1,1.2-14.1,2.5-21.2,3.7
		c-6.1-11.1-12.2-22.3-18.4-33.4c-1.2-2.1-2.3-4.3-3.8-6.2c-1.5,14.7-3.1,29.5-4.5,44.2c-7,1.6-14.2,2.5-21.3,3.9
		c-11.7-21-23.2-42.1-34.8-63.2c-1.5-2.5-2.6-5.3-4.6-7.5c0,0.7,0.1,2,0.1,2.7c11.8,70.5,23.5,141,35.4,211.6
		c5.2,31.7,10.8,63.3,15.8,95C505.5,843.6,617,828,728.5,812.4c49-7,98.2-13.5,147.2-20.7C865.6,731.7,855.4,671.7,845.5,611.6z"/>
	<path d="M381.7,700.5c-5.2-25.3-10.4-50.7-15.6-76c6.4-1.1,12.7-2.2,19.1-3.4c4.2,20.2,8.4,40.5,12.5,60.8
		c9.7-1.5,19.2-3.6,28.9-4.9c0.9,5.1,2.2,10,2.9,15.1C413.6,694.9,397.7,697.7,381.7,700.5z"/>
	<path class="st0" d="M342.1,548.9l0.3,0.4c0-0.2,0-0.3,0-0.5C342.3,548.9,342.2,548.9,342.1,548.9z"/>
	<g>
		<g>
			<path class="st0" d="M930.6,870.2c-30.3-181.7-60.8-363.5-91.2-545.2c-3.1-19.7-6.9-39.3-9.6-59c-4.3,0.1-8.5,0.5-12.7,1.4
				c-182.9,25.4-365.7,51.3-548.6,76.6c0.9,4.1,1.9,8.1,2.4,12.3c33.5,200,66.9,400,100.4,600c1.9,12.1,4.4,24.2,5.8,36.4
				C562.2,966.9,747.4,941,932.6,915c1.7-0.4,4.3,0.4,5.4-1.4C935.2,899.2,933.1,884.7,930.6,870.2z M728.5,812.4
				c-111.5,15.6-223,31.2-334.4,46.8c-4.9-31.7-10.6-63.4-15.8-95c-11.9-70.5-23.6-141.1-35.4-211.6c0-0.7-0.1-2-0.1-2.7l-0.4-0.5
				c0,0.2,0,0.4,0,0.8c0-0.4,0-0.6,0-0.8l-0.3-0.4c-4.4-28.7-9.5-57.4-14.2-86.1c-4.9-30-10.2-59.9-14.9-89.9
				c13.8-1.4,27.4-3.8,41.1-5.5c146.8-20.5,293.5-41.1,440.3-61.6c11.4,69.5,23.2,139,34.8,208.5c1.6,8,2.2,16.2,4.4,24.1
				c-0.2-0.2-0.4-0.3-0.7-0.5c0,1,0.1,2,0.1,3c0.2,0,0.3-0.1,0.5-0.1c4.4,23.5,7.9,47.2,12,70.8c9.9,60,20.1,120,30.2,180
				C826.7,798.9,777.5,805.4,728.5,812.4z"/>
		</g>
	</g>
	<g>
		<path class="st0" d="M813.5,498.7c1.6-8.6-1.4-18.5-8.8-23.6c-6.5-4.5-14.9-5.2-22.5-4c-10.2,1.7-20.5,3.6-30.7,5.4
			c5.2,25.3,10.4,50.7,15.6,76c6.4-1.1,12.8-2.2,19.1-3.4c-2-9.9-4.1-19.8-6.1-29.7c10.6,8,20.7,16.7,31.2,24.8
			c1.4,0.5,2.8-0.2,4.2-0.3c5.8-1.1,11.6-2.1,17.4-3.1c0-1-0.1-2-0.1-3c-10.6-8-21.4-15.8-31.9-23.9
			C807,511,812.2,505.6,813.5,498.7z M790.7,502.8c-3.8,2.7-8.6,3.2-13.1,4.1c-1.4-6.6-2.7-13.2-4.1-19.9c4.4-0.7,8.9-1.8,13.3-0.8
			C793.8,487.7,796.4,498.5,790.7,502.8z"/>
		<path class="st0" d="M382.2,620.6c7.1-1.4,14.2-2.3,21.3-3.9c1.4-14.7,3-29.5,4.5-44.2c1.5,1.9,2.6,4.1,3.8,6.2
			c6.1,11.1,12.3,22.2,18.4,33.4c7.1-1.2,14.1-2.5,21.2-3.7c2.7-26.7,5.5-53.5,8.2-80.2c-7.1,1.3-14.1,2.4-21.2,3.8
			c-0.9,15.8-2.1,31.6-3,47.4c-0.2,2.4-0.2,4.9-0.7,7.3c-9-16.3-17.4-33.1-26.2-49.5c-4.8,1-9.6,1.7-14.4,2.6
			c-1.5,18.4-2.9,36.7-4.6,55.1c-8.8-16.4-16.8-33.3-25.4-49.9c-7.2,1.4-14.4,2.4-21.5,3.9c0,0.2,0,0.3,0,0.5l0.4,0.5
			c2,2.2,3.2,5,4.6,7.5C359,578.5,370.5,599.6,382.2,620.6z"/>
		<path class="st0" d="M692.6,486.5c16-2.7,31.9-5.6,47.9-8.4c1.1,5.1,2.1,10.2,3.1,15.3c-9.6,1.7-19.2,3.4-28.7,5c1,5,2,10,3.1,15
			c9.2-1.5,18.4-3.2,27.6-4.8c1,5.1,2.2,10.2,3.1,15.3c-9.2,1.4-18.3,3.3-27.5,4.7c0.8,5.2,2.1,10.2,3,15.3
			c9.7-1.6,19.2-3.6,28.9-4.9c0.8,5.1,2.2,10,2.9,15.1c-15.9,2.7-31.8,5.6-47.8,8.4C703,537.1,697.8,511.8,692.6,486.5z"/>
		<g>
			<path class="st0" d="M618,499.6c8.3-1.4,16.7-3,25-4.4c10.7-1.7,22.1,0.1,31.5,5.7c8.4,5,14.9,13.3,17.3,22.9
				c2.5,9.2,1.3,19.4-3.7,27.6c-6.3,10.8-17.9,17.8-30,19.9c-8.2,1.5-16.3,2.9-24.5,4.3C628.5,550.3,623.3,524.9,618,499.6z
				 M640.3,511.7c3.1,15,6.1,30,9.3,45c7.2-1,14.7-4,18.8-10.3c6.9-9.9,3.6-24.8-6.2-31.4C656,510.5,647.7,510,640.3,511.7z"/>
		</g>
		<path class="st0" d="M586.7,505.4c6.4-1,12.7-2.3,19-3.3c5.2,25.3,10.4,50.7,15.6,76c-6.3,1.2-12.7,2.2-19,3.4
			c-14.5-13.6-28.5-27.7-43.1-41.2c3.1,15.7,6.4,31.3,9.6,47c-6.4,1.2-12.8,2.2-19.1,3.4c-5.3-25.3-10.4-50.7-15.7-76
			c6.5-0.9,12.9-2.7,19.3-3.1c14.4,13.5,28.4,27.5,42.9,41C593.1,536.9,589.5,521.2,586.7,505.4z"/>
		<g>
			<path class="st0" d="M479.2,524.4c5.9-0.9,11.7-2,17.5-3c16.5,23.4,33.1,46.7,49.4,70.1c-6.3,0.9-12.5,2.5-18.9,3
				c2.5,0.1,5-0.5,7.6-0.6c6.8-0.2,13.7,1,20.1,3.3c-1.6,5.1-3.3,10.1-4.8,15.2c-6.8-2.2-14.3-3.8-21.3-1.4
				c-2.9,0.9-5.8,3.4-5.5,6.7c0,2.4,2.1,3.9,4,4.8c7.1,3.1,15.1,3.3,22.4,5.8c5,1.7,9.9,4.2,13.5,8.2c4.6,5.1,5.2,12.8,3.5,19.2
				c-2,7.3-8.5,12.4-15.3,15.1c-14.2,5.7-30.8,5.3-44.6-1.3c2.1-5.5,4.4-10.9,6.6-16.4c6.3,2.9,13.1,5.4,20.1,5.2
				c3.7-0.4,7.7-1.1,10.7-3.5c2.9-2.3,2.8-7.4-0.2-9.5c-4.2-2.8-9.3-3.4-14.1-4.7c-7.5-1.5-15.3-3.8-20.7-9.6
				c-5.6-5.8-6.2-15.1-2.6-22.1c3.7-7.2,11-11.9,18.7-14c-3-4.7-6.1-9.4-9.3-14.1c-10.6,1.9-21.2,3.8-31.7,5.6
				c-1,5.3-1.9,10.6-3,15.9l-0.6,0.4c-6.6,1.4-13.3,2.4-20,3.6C467,579.1,473,551.8,479.2,524.4z M492.7,546.5
				c-1.6,7.9-3.2,15.8-4.8,23.7c6.3-1,12.5-2.2,18.7-3.2C502.1,560.1,497.5,553.2,492.7,546.5z"/>
		</g>
		<path class="st0" d="M554.9,591.5c19.6-3.4,39.3-6.9,58.9-10.3c1,5.1,2.1,10.2,3.1,15.3c-6.6,1.1-13.2,2.4-19.9,3.4
			c4.2,20.3,8.3,40.5,12.5,60.8c-6.4,1.1-12.8,2.2-19.1,3.4c-4.1-20.3-8.4-40.5-12.5-60.7c-6.6,1.1-13.3,2.3-19.9,3.5
			C557,601.7,556,596.6,554.9,591.5z"/>
		<path class="st0" d="M468.6,606.6c6.4-0.9,12.7-2.3,19.1-3.2c3.3,16.5,6.8,32.9,10.1,49.4c1.4,7.2,1.1,15.2-3.4,21.4
			c-5.1,7.1-13.9,10.4-22.2,12.1c-9.1,1.7-19.2,2.1-27.5-2.7c-6.9-4-10.8-11.6-12.3-19.1c-3.4-16.5-6.8-33-10.2-49.5
			c6.4-1.1,12.7-2.2,19.1-3.3c3,14.7,6,29.3,9.1,44c1,4.3,2.2,9.1,5.7,12.1c3.3,2.8,8.1,2.4,12.1,1.6c3.4-0.7,7.1-2.1,8.8-5.3
			c1.9-3.7,1.4-8.2,0.7-12.2C474.8,636.6,471.5,621.6,468.6,606.6z"/>
		<path class="st0" d="M366.1,624.5c6.4-1.1,12.7-2.2,19.1-3.4c4.2,20.2,8.4,40.5,12.5,60.8c9.7-1.5,19.2-3.6,28.9-4.9
			c0.9,5.1,2.2,10,2.9,15.1c-15.9,2.7-31.8,5.6-47.8,8.4C376.5,675.2,371.3,649.8,366.1,624.5z"/>
	</g>
</g>
<g class="sub_two">
    <polygon points="773.5,487 770.1,525.6 812.1,528.6 818.1,468.6 758.1,453.6 "/>
	<path d="M835.1,557.8c0-0.1,0-0.2,0-0.4c-0.1,0-0.1,0.1-0.2,0.1C834.9,557.6,835,557.7,835.1,557.8z"/>
	<path d="M833.8,631.9c0.1-23.9,0.9-47.9,0.7-71.8c-0.1,0-0.1,0-0.2,0c-0.1,0.2-0.1,0.4-0.3,0.5c0.2-0.1,0.3-0.3,0.3-0.5
		c-6,0-11.9-0.1-17.9-0.1c-1.4-0.2-3,0.3-4.2-0.4c-8.9-9.9-17.3-20.2-26.3-30c0.1,10.1,0.5,20.2,0.7,30.3c-6.5,0-13-0.1-19.4-0.1
		c-0.6-25.9-1.3-51.7-1.9-77.6c10.4,0.1,20.8,0.1,31.2,0.2c7.7,0.2,15.9,2.3,21.4,7.9c6.4,6.3,7.6,16.6,4.5,24.8
		c-2.5,6.5-8.6,10.9-15.1,12.9c9.1,10,18.4,19.7,27.5,29.6c0.1,0,0.1-0.1,0.2-0.1c-0.7-8,0.1-16.1,0-24.1
		c0.9-70.4,1.6-140.9,2.7-211.4c-148.1-5.8-296.2-11.6-444.3-17.4c-13.8-0.7-27.7-0.8-41.5-1.8c-0.7,30.4-0.8,60.7-1.2,91.1
		c-0.5,29.1-0.5,58.2-1.3,87.2c7.4-0.2,14.8,0.1,22.1,0c5.5,17.8,10.4,35.8,16.2,53.6c4.9-17.8,9.5-35.6,14.3-53.4
		c4.9,0,9.8,0.1,14.6,0c5.8,17.8,11,35.7,17,53.4c0.9-2.3,1.4-4.7,2-7.1c3.8-15.4,7.7-30.7,11.4-46.1c7.2-0.1,14.3,0,21.5,0
		c-7.3,25.9-14.8,51.7-22.3,77.5c-7.2-0.1-14.3,0-21.5-0.1c-4-12-8.1-24.1-12.1-36.1c-0.8-2.3-1.4-4.7-2.6-6.8
		c-4.1,14.2-8.3,28.4-12.2,42.7c-7.2,0.3-14.4-0.1-21.6,0.1c-7.8-22.8-15.4-45.6-23.1-68.4c-1-2.8-1.6-5.7-3.2-8.2
		c-0.1,0.7-0.2,2-0.3,2.7c-0.9,71.5-1.8,143-2.7,214.5c-0.5,32.1-0.6,64.2-1.3,96.3c112.5,4.4,224.9,8.8,337.4,13.2
		c49.5,1.9,99,4.1,148.6,5.7C832.3,753.6,832.9,692.7,833.8,631.9z"/>
	<path d="M361.6,637.1c-0.6-25.9-1.3-51.7-1.9-77.6c6.5,0.1,12.9,0.1,19.4,0.1c0.5,20.7,1.1,41.3,1.5,62c9.8,0.2,19.6-0.2,29.3,0.4
		c-0.1,5.1,0.4,10.3,0.1,15.4C394,637.2,377.8,637.2,361.6,637.1z"/>
	<path class="st0" d="M349.5,480.9l0.2,0.5c0-0.1,0-0.3,0.1-0.5C349.7,480.9,349.6,480.9,349.5,480.9z"/>
	<g>
		<g>
			<path class="st0" d="M871.7,901.5c2.4-184.2,4.6-368.5,6.9-552.7c0.4-19.9,0.2-39.9,1-59.8c-4.2-0.7-8.5-1-12.7-0.8
				c-184.5-7.4-369-14.3-553.5-21.9c0.2,4.2,0.4,8.3,0.2,12.5c-2.5,202.7-5,405.5-7.5,608.3c-0.3,12.3,0,24.6-0.8,36.9
				c186.8,7.4,373.7,14.7,560.5,22c1.8-0.1,4.2,1.1,5.6-0.4C871.1,930.8,871.6,916.1,871.7,901.5z M683,808.7
				c-112.5-4.4-224.9-8.8-337.4-13.2c0.8-32.1,0.8-64.2,1.3-96.3c0.8-71.5,1.8-143,2.7-214.5c0.1-0.7,0.3-2,0.3-2.7l-0.3-0.6
				c0,0.2-0.1,0.4-0.1,0.7c0.1-0.4,0.1-0.6,0.1-0.7l-0.2-0.5c0.8-29,0.8-58.1,1.3-87.2c0.5-30.4,0.6-60.8,1.2-91.1
				c13.8,1,27.6,1.1,41.5,1.8c148.1,5.8,296.2,11.6,444.3,17.4c-1.1,70.4-1.8,140.9-2.7,211.4c0.1,8.2-0.7,16.4,0,24.5
				c-0.2-0.2-0.4-0.4-0.6-0.6c-0.1,1-0.3,1.9-0.4,2.9c0.2,0,0.3,0,0.5,0c0.1,23.9-0.6,47.8-0.7,71.8c-0.9,60.8-1.5,121.7-2.2,182.5
				C782.1,812.8,732.5,810.6,683,808.7z"/>
		</g>
	</g>
	<g>
		<path class="st0" d="M822.4,515.1c3.1-8.2,1.9-18.5-4.5-24.8c-5.6-5.6-13.7-7.7-21.4-7.9c-10.4-0.1-20.8,0-31.2-0.2
			c0.6,25.9,1.3,51.7,1.9,77.6c6.5,0,13,0.1,19.4,0.1c-0.2-10.1-0.6-20.2-0.7-30.3c9,9.8,17.4,20.1,26.3,30c1.2,0.8,2.8,0.3,4.2,0.4
			c5.9,0,11.7,0,17.6,0.1c0.1-1,0.3-1.9,0.4-2.9c-9.1-9.7-18.2-19.4-27.2-29.2C813.8,526,819.9,521.6,822.4,515.1z M799.1,515
			c-4.2,2-9,1.6-13.6,1.7c-0.2-6.8-0.3-13.5-0.5-20.3c4.4,0.1,9-0.2,13.2,1.6C804.9,500.7,805.6,511.8,799.1,515z"/>
		<path class="st0" d="M376.3,558.6c7.2-0.2,14.4,0.2,21.6-0.1c3.9-14.3,8.2-28.5,12.2-42.7c1.2,2.1,1.8,4.5,2.6,6.8
			c4,12,8.1,24.1,12.1,36.1c7.2,0.1,14.3,0,21.5,0.1c7.4-25.8,14.9-51.7,22.3-77.5c-7.2,0-14.3-0.1-21.5,0
			c-3.7,15.4-7.6,30.7-11.4,46.1c-0.6,2.4-1.1,4.8-2,7.1c-6-17.7-11.2-35.6-17-53.4c-4.9,0.1-9.8,0-14.6,0
			c-4.7,17.8-9.3,35.7-14.3,53.4c-5.7-17.7-10.7-35.8-16.2-53.6c-7.3,0.1-14.6-0.1-21.9,0c0,0.2,0,0.3-0.1,0.5l0.3,0.6
			c1.6,2.5,2.2,5.5,3.2,8.2C360.9,513,368.5,535.8,376.3,558.6z"/>
		<path class="st0" d="M705.5,481.6c16.2,0.1,32.4,0.1,48.6,0.2c0.2,5.2,0.3,10.4,0.4,15.6c-9.7-0.1-19.5,0-29.2-0.2
			c0,5.1,0.2,10.2,0.3,15.3c9.3,0.1,18.7,0.1,28,0.1c0.1,5.2,0.3,10.4,0.3,15.6c-9.3-0.2-18.6,0-27.9-0.3
			c-0.1,5.2,0.2,10.4,0.3,15.6c9.8,0.2,19.6-0.2,29.3,0.3c-0.1,5.1,0.4,10.3,0.1,15.4c-16.2-0.1-32.3-0.1-48.5-0.2
			C706.8,533.3,706.1,507.4,705.5,481.6z"/>
		<g>
			<path class="st0" d="M629.8,481.3c8.5,0.1,16.9,0,25.4,0.1c10.9,0.2,21.8,4,30,11.2c7.4,6.4,12.3,15.7,13,25.6
				c0.8,9.5-2.2,19.3-8.5,26.5c-8.1,9.5-20.7,14.3-33.1,14.2c-8.3,0-16.6-0.1-24.9-0.1C631.1,533,630.5,507.1,629.8,481.3z
				 M649.6,497.2c0.4,15.3,0.7,30.6,1.2,45.9c7.3,0.3,15.2-1.3,20.4-6.8c8.5-8.5,8-23.7-0.6-32C665.2,498.7,657.2,496.8,649.6,497.2
				z"/>
		</g>
		<path class="st0" d="M597.9,481.5c6.4,0.1,12.9,0,19.3,0.2c0.6,25.8,1.3,51.7,1.9,77.5c-6.5,0.1-12.9-0.1-19.4,0
			c-11.8-16-23.2-32.3-35.1-48.2c0.2,16,0.8,32,1.1,47.9c-6.5,0-13-0.1-19.4,0c-0.7-25.9-1.3-51.7-1.9-77.6
			c6.5,0.3,13.1-0.3,19.6,0.4c11.8,15.9,23.1,32.1,34.9,47.9C598.7,513.6,597.9,497.5,597.9,481.5z"/>
		<g>
			<path class="st0" d="M488.8,481.1c5.9,0.2,11.9,0.1,17.8,0.1c12.1,25.9,24.3,51.8,36.2,77.8c-6.4-0.2-12.8,0.2-19.1-0.4
				c2.5,0.6,5.1,0.4,7.6,0.8c6.8,1,13.3,3.4,19.2,6.8c-2.5,4.7-5,9.3-7.4,14.1c-6.3-3.3-13.4-6.2-20.7-5.1c-3,0.4-6.3,2.3-6.6,5.6
				c-0.5,2.3,1.3,4.2,3.1,5.4c6.5,4.3,14.2,6,21,9.7c4.6,2.6,9,5.9,11.8,10.4c3.6,5.8,2.9,13.5,0.1,19.5
				c-3.3,6.8-10.5,10.7-17.7,12.2c-15,3.1-31.2-0.2-43.6-9.2c3.1-5,6.2-10,9.4-15c5.7,4,11.9,7.6,18.9,8.7c3.7,0.3,7.7,0.3,11.1-1.6
				c3.3-1.8,4.1-6.8,1.5-9.4c-3.6-3.5-8.6-5-13-7.1c-7.1-2.8-14.4-6.5-18.6-13.1c-4.5-6.7-3.4-16,1.4-22.2c4.9-6.5,13-9.8,20.9-10.5
				c-2.1-5.2-4.3-10.4-6.6-15.5c-10.7,0-21.5,0-32.2-0.1c-1.9,5-3.8,10.1-5.8,15.1l-0.6,0.3c-6.8,0.2-13.5,0-20.3,0
				C467.1,532.8,477.8,506.9,488.8,481.1z M498.2,505.2c-2.9,7.5-5.9,15-8.9,22.5c6.3,0.1,12.7,0.1,19,0.1
				C505,520.3,501.7,512.7,498.2,505.2z"/>
		</g>
		<path class="st0" d="M551.4,560.5c19.9,0.1,39.9,0.1,59.8,0.3c0.1,5.2,0.3,10.4,0.3,15.6c-6.7-0.1-13.4,0-20.2-0.1
			c0.5,20.7,1,41.4,1.5,62.1c-6.5-0.1-13-0.1-19.4-0.1c-0.5-20.7-1.1-41.3-1.5-62c-6.7-0.1-13.4-0.1-20.2-0.1
			C551.6,571,551.6,565.8,551.4,560.5z"/>
		<path class="st0" d="M463.8,560.1c6.5,0.3,12.9,0,19.4,0.2c0.3,16.8,0.8,33.6,1.2,50.4c0.1,7.3-1.6,15.2-7.1,20.4
			c-6.3,6.1-15.5,7.8-23.9,8c-9.3,0.1-19.3-1.3-26.6-7.6c-6-5.2-8.6-13.3-8.7-21c-0.4-16.8-0.9-33.7-1.2-50.5
			c6.5,0.1,12.9,0.1,19.4,0.1c0.4,15,0.7,30,1.1,44.9c0.2,4.4,0.6,9.3,3.5,12.9c2.8,3.3,7.5,3.8,11.6,3.8c3.5-0.1,7.3-0.8,9.6-3.7
			c2.6-3.3,2.8-7.8,2.8-11.8C464.5,590.8,464,575.4,463.8,560.1z"/>
		<path class="st0" d="M359.7,559.5c6.5,0.1,12.9,0.1,19.4,0.1c0.5,20.7,1.1,41.3,1.5,62c9.8,0.2,19.6-0.2,29.3,0.4
			c-0.1,5.1,0.4,10.3,0.1,15.4c-16.2-0.1-32.3-0.1-48.5-0.2C361,611.3,360.3,585.4,359.7,559.5z"/>
	</g>
</g>
<g class="sub_three">
    <polygon points="764.1,476.1 771.6,498.6 809.1,491.1 798.6,450.6 744.6,447.6 "/>
	<path d="M834.3,533.3c0-0.1,0-0.2,0-0.4c-0.1,0-0.1,0.1-0.2,0.1C834.1,533.1,834.2,533.2,834.3,533.3z"/>
	<path d="M841.4,607.1c-2.6-23.8-4.5-47.7-7.4-71.4c-0.1,0-0.1,0-0.2,0c-0.1,0.2-0.1,0.4-0.2,0.5c0.2-0.1,0.3-0.3,0.2-0.5
		c-6,0.7-11.8,1.2-17.8,1.9c-1.4,0-2.9,0.6-4.2,0.1c-10-8.8-19.5-18.1-29.5-26.9c1.2,10,2.8,20,4.1,30c-6.5,0.7-12.9,1.4-19.3,2.1
		c-3.5-25.7-7.1-51.2-10.6-76.9c10.3-1.1,20.7-2.2,31-3.3c7.7-0.7,16.1,0.5,22.2,5.5c7.1,5.5,9.4,15.6,7.3,24.1
		c-1.8,6.7-7.3,11.8-13.6,14.5c10.2,8.9,20.5,17.5,30.6,26.3c0.1,0,0.1-0.1,0.2-0.1c-1.6-7.9-1.7-16-2.7-23.9
		c-7-70.1-14.2-140.2-21-210.4c-147.8,10.8-295.6,21.7-443.5,32.5c-13.8,0.9-27.6,2.3-41.4,2.9c2.7,30.3,6,60.4,9,90.7
		c2.8,29,6,57.9,8.5,86.8c7.3-1,14.7-1.6,22-2.5c7.5,17.1,14.3,34.4,22.1,51.4c2.9-18.2,5.5-36.4,8.2-54.7c4.9-0.5,9.7-1,14.5-1.6
		c7.8,17,14.9,34.2,22.9,51.2c0.6-2.4,0.9-4.8,1.2-7.3c2.1-15.7,4.2-31.4,6.2-47.1c7.1-0.9,14.2-1.6,21.4-2.4
		c-4.4,26.6-8.9,53-13.5,79.5c-7.2,0.7-14.2,1.6-21.4,2.3c-5.3-11.5-10.7-23-16.1-34.5c-1.1-2.2-1.9-4.5-3.3-6.5
		c-2.5,14.6-5.1,29.2-7.3,43.8c-7.1,1.1-14.3,1.5-21.5,2.5c-10.3-21.8-20.4-43.6-30.6-65.4c-1.3-2.7-2.2-5.5-4.1-7.8
		c0,0.7,0,2,0,2.7c7.1,71.2,14.2,142.3,21.4,213.5c3.1,32,6.6,63.9,9.5,95.8c112.3-8.2,224.5-16.5,336.8-24.7
		c49.4-3.7,98.8-7,148.3-11C853.5,728.2,847.3,667.6,841.4,607.1z"/>
	<path d="M372.7,665.1c-3.5-25.7-7.1-51.2-10.6-76.9c6.5-0.6,12.8-1.3,19.3-2.1c2.8,20.5,5.7,40.9,8.4,61.4
		c9.8-0.9,19.5-2.4,29.2-2.9c0.5,5.1,1.6,10.2,1.8,15.3C404.9,661.6,388.8,663.4,372.7,665.1z"/>
	<path class="st0" d="M343.2,511.3l0.3,0.5c0-0.1,0-0.3,0-0.5C343.4,511.3,343.3,511.3,343.2,511.3z"/>
	<g>
		<g>
			<path class="st0" d="M909.2,870.7c-18.3-183.3-36.7-366.7-55.1-550c-1.8-19.8-4.3-39.7-5.7-59.5c-4.3-0.2-8.6,0-12.7,0.6
				c-184.2,13.3-368.3,27.1-552.5,40.3c0.7,4.2,1.3,8.2,1.6,12.4c20.2,201.7,40.5,403.5,60.7,605.3c1.1,12.3,2.8,24.4,3.3,36.8
				c186.5-13.6,373-27.3,559.4-41c1.8-0.3,4.3,0.6,5.5-1C911.9,899.9,910.8,885.2,909.2,870.7z M711.3,799.6
				c-112.3,8.2-224.5,16.5-336.8,24.7c-2.8-32-6.4-63.9-9.5-95.8c-7.2-71.1-14.2-142.3-21.4-213.5c0-0.7,0.1-2,0-2.7l-0.4-0.6
				c0,0.2-0.1,0.4,0,0.7c0.1-0.4,0-0.6,0-0.7l-0.3-0.5c-2.5-28.9-5.7-57.8-8.5-86.8c-2.9-30.3-6.2-60.5-9-90.7
				c13.8-0.6,27.5-2,41.4-2.9c147.8-10.8,295.6-21.7,443.5-32.5c6.8,70.1,14,140.2,21,210.4c1,8.1,1.1,16.4,2.7,24.3
				c-0.2-0.2-0.4-0.4-0.7-0.5c0,1-0.1,1.9-0.1,2.9c0.2,0,0.3,0,0.5-0.1c2.8,23.7,4.8,47.6,7.4,71.4c5.9,60.5,12.1,121.1,18.3,181.6
				C810.3,792.6,760.7,796,711.3,799.6z"/>
		</g>
	</g>
	<g>
		<path class="st0" d="M816.9,492.3c2.2-8.5-0.2-18.6-7.3-24.1c-6.2-4.9-14.5-6.1-22.2-5.5c-10.3,1.1-20.7,2.3-31,3.3
			c3.5,25.7,7.1,51.2,10.6,76.9c6.5-0.7,12.9-1.4,19.3-2.1c-1.3-10-2.9-20-4.1-30c10,8.7,19.5,18,29.5,26.9c1.3,0.7,2.8,0,4.2-0.1
			c5.9-0.7,11.6-1.3,17.5-1.9c0-1,0.1-1.9,0.1-2.9c-10.1-8.6-20.3-17.2-30.3-26C809.6,504.1,815.2,499,816.9,492.3z M793.8,494.8
			c-3.9,2.5-8.8,2.6-13.3,3.2c-1-6.7-1.8-13.4-2.8-20.1c4.4-0.4,8.9-1.2,13.3,0.1C797.9,479.9,799.9,490.9,793.8,494.8z"/>
		<path class="st0" d="M378.5,585.5c7.1-1,14.3-1.4,21.5-2.5c2.3-14.6,5-29.2,7.3-43.8c1.4,2,2.3,4.3,3.3,6.5
			c5.3,11.5,10.7,23,16.1,34.5c7.2-0.7,14.2-1.6,21.4-2.3c4.5-26.5,9-53,13.5-79.5c-7.2,0.8-14.2,1.5-21.4,2.4
			c-2,15.7-4.1,31.4-6.2,47.1c-0.3,2.5-0.6,4.9-1.2,7.3c-7.9-16.9-15.1-34.1-22.9-51.2c-4.9,0.6-9.7,1.1-14.5,1.6
			c-2.7,18.2-5.2,36.5-8.2,54.7c-7.6-16.9-14.6-34.4-22.1-51.4c-7.2,0.9-14.5,1.5-21.8,2.5c0,0.2,0,0.3,0,0.5l0.4,0.6
			c1.9,2.3,2.8,5.2,4.1,7.8C358.1,541.9,368.2,563.7,378.5,585.5z"/>
		<path class="st0" d="M697,472.1c16.1-1.7,32.2-3.5,48.3-5.2c0.8,5.1,1.5,10.3,2.1,15.5c-9.7,1-19.4,2.2-29,3.1
			c0.6,5.1,1.3,10.1,2,15.2c9.3-0.9,18.6-2,27.8-3c0.7,5.2,1.5,10.3,2,15.5c-9.3,0.8-18.5,2.1-27.8,2.8c0.5,5.2,1.4,10.3,2,15.5
			c9.8-0.9,19.5-2.4,29.1-3c0.5,5.1,1.6,10.2,1.8,15.3c-16.1,1.7-32.1,3.5-48.2,5.2C704.1,523.3,700.5,497.6,697,472.1z"/>
		<g>
			<path class="st0" d="M621.8,480.3c8.5-0.9,16.8-1.9,25.3-2.7c10.9-1,22.1,1.5,31.1,7.8c8.1,5.5,14,14.2,15.8,24
				c1.9,9.4,0,19.4-5.5,27.3c-7,10.3-19,16.5-31.3,17.8c-8.2,0.9-16.5,1.8-24.8,2.7C628.9,531.5,625.4,505.8,621.8,480.3z
				 M643.2,493.8c2.1,15.2,4.1,30.3,6.3,45.5c7.3-0.5,15-3,19.5-9c7.5-9.4,5.3-24.4-4.2-31.7C658.9,493.6,650.7,492.6,643.2,493.8z"
				/>
		</g>
		<path class="st0" d="M590.1,484c6.4-0.6,12.8-1.4,19.2-2c3.5,25.6,7.1,51.2,10.6,76.8c-6.4,0.8-12.8,1.3-19.3,2.2
			c-13.5-14.6-26.7-29.5-40.3-44c2,15.9,4.4,31.7,6.5,47.5c-6.5,0.7-12.9,1.4-19.3,2.2c-3.6-25.7-7.1-51.2-10.6-76.9
			c6.5-0.4,13-1.8,19.5-1.8c13.5,14.5,26.6,29.3,40,43.7C594.5,515.8,591.9,499.9,590.1,484z"/>
		<g>
			<path class="st0" d="M481.6,495.9c5.9-0.5,11.8-1.2,17.7-1.9c14.9,24.4,30,48.8,44.7,73.3c-6.4,0.5-12.7,1.6-19,1.7
				c2.6,0.3,5.1-0.2,7.6-0.1c6.9,0.2,13.6,1.9,19.8,4.6c-2,5-3.9,9.8-5.8,14.8c-6.6-2.6-14-4.7-21.1-2.7c-2.9,0.7-6,3-5.9,6.3
				c-0.2,2.3,1.8,4,3.7,5c6.9,3.5,14.8,4.4,22,7.3c4.9,2.1,9.6,4.9,12.9,9c4.2,5.4,4.4,13.1,2.3,19.4c-2.5,7.1-9.2,11.8-16.2,14.1
				c-14.6,4.8-31,3.3-44.4-4.3c2.5-5.3,5-10.6,7.7-16c6.1,3.3,12.7,6.2,19.8,6.5c3.7-0.1,7.7-0.6,10.9-2.8c3.1-2.2,3.3-7.2,0.4-9.5
				c-4-3.1-9.1-4-13.7-5.6c-7.4-2-15-4.8-20-10.9c-5.2-6.2-5.2-15.5-1.1-22.2c4.1-7,11.8-11.2,19.6-12.8c-2.7-4.9-5.4-9.9-8.3-14.7
				c-10.6,1.2-21.4,2.4-32,3.5c-1.3,5.2-2.6,10.5-4.1,15.7l-0.6,0.4c-6.7,1-13.4,1.5-20.2,2.3C465.9,549.7,473.6,522.7,481.6,495.9z
				 M493.7,518.8c-2,7.8-4.2,15.6-6.3,23.4c6.3-0.6,12.6-1.3,18.9-2C502.1,533,498,525.8,493.7,518.8z"/>
		</g>
		<path class="st0" d="M552.7,567.8c19.8-2.1,39.7-4.4,59.5-6.4c0.7,5.2,1.5,10.3,2,15.5c-6.7,0.7-13.3,1.5-20.1,2.2
			c2.8,20.5,5.6,41,8.4,61.5c-6.5,0.6-12.9,1.4-19.3,2.1c-2.8-20.5-5.7-40.9-8.4-61.4c-6.7,0.7-13.3,1.4-20.1,2.2
			C554.1,578.2,553.5,573,552.7,567.8z"/>
		<path class="st0" d="M465.6,577.2c6.5-0.4,12.8-1.4,19.3-2c2.2,16.7,4.6,33.3,6.8,49.9c0.9,7.2,0.1,15.3-4.8,21.1
			c-5.6,6.8-14.5,9.5-22.9,10.6c-9.2,1.1-19.3,0.9-27.3-4.6c-6.5-4.5-10-12.3-11-19.9c-2.3-16.6-4.7-33.4-6.9-50
			c6.5-0.6,12.8-1.3,19.3-2.1c2.1,14.9,4.1,29.7,6.1,44.5c0.7,4.3,1.6,9.2,4.9,12.4c3.2,3,7.9,2.9,12,2.5c3.5-0.5,7.2-1.6,9.1-4.8
			c2.2-3.6,1.9-8.1,1.5-12C469.8,607.6,467.6,592.4,465.6,577.2z"/>
		<path class="st0" d="M362.1,588.2c6.5-0.6,12.8-1.3,19.3-2.1c2.8,20.5,5.7,40.9,8.4,61.4c9.8-0.9,19.5-2.4,29.2-2.9
			c0.5,5.1,1.6,10.2,1.8,15.3c-16.1,1.7-32.1,3.5-48.2,5.2C369.2,639.6,365.6,613.9,362.1,588.2z"/>
	</g>
</g>
</svg>